<svg xmlns="http://www.w3.org/2000/svg" viewBox="0 0 1000 1000" role="img" aria-label="LAN Lab">
  <rect width="1000" height="1000" fill="#0f1419"/>
  <defs>
    <marker id="axa" markerUnits="userSpaceOnUse" markerWidth="9" markerHeight="9"
            refX="0" refY="4" orient="auto">
      <path d="M0,0 L8,4 L0,8 Z" fill="#2dd4bf"/>
    </marker>
  </defs>
  <g transform="translate(328.5, 229) scale(3.5)">
    <path d="M 22 56 C 38 60 50 68 61 74" fill="none" stroke="#2dd4bf" stroke-width="4"
          stroke-linecap="round" stroke-dasharray="7 6" opacity="0.55"/>
    <circle cx="67" cy="77.5" r="5.5" fill="none" stroke="#2dd4bf" stroke-width="3" opacity="0.55"/>
    <path d="M 22 56 C 34 52 42 47 49.8 40.4" fill="none" stroke="#2dd4bf" stroke-width="5"
          stroke-linecap="round" marker-end="url(#axa)"/>
    <g fill="none" stroke="#2dd4bf" stroke-width="4" stroke-linecap="round">
      <path d="M 74.6 26.6 A 13 13 0 0 0 64.3 17.2"/>
      <path d="M 82.3 24.6 A 21 21 0 0 0 65.6 9.3" opacity="0.55"/>
    </g>
    <circle cx="62" cy="30" r="6.5" fill="#2dd4bf"/>
    <path d="M 54 22 C 42 11 27 14 20 40" fill="none" stroke="#2dd4bf" stroke-width="4.5"
          stroke-linecap="round" marker-end="url(#axa)"/>
    <circle cx="22" cy="56" r="8" fill="#f59e0b"/>
  </g>
  <text x="500" y="700" font-family="Inter, system-ui, sans-serif"
        font-size="120" font-weight="900" letter-spacing="-4"
        fill="#e6e8eb" text-anchor="middle">LAN Lab</text>
  <text x="500" y="780" font-family="Inter, system-ui, sans-serif"
        font-size="32" font-weight="500" letter-spacing="5"
        fill="#8b95a1" text-anchor="middle">IIT KHARAGPUR</text>
</svg>
